{
  "accessors": [
    {
      "bufferView": 2,
      "componentType": 5126,
      "count": 47012,
      "max": [
        -1.4466853141784668,
        -0.16180846095085144,
        5.693241119384766
      ],
      "min": [
        -2.7240264415740967,
        -4.7800211906433105,
        -6.96222448348999
      ],
      "type": "VEC3"
    },
    {
      "bufferView": 2,
      "byteOffset": 564144,
      "componentType": 5126,
      "count": 47012,
      "max": [
        0.9533065557479858,
        0.9816600680351257,
        1.0
      ],
      "min": [
        -1.0,
        -0.9999967813491821,
        -0.9999990463256836
      ],
      "type": "VEC3"
    },
    {
      "bufferView": 1,
      "componentType": 5126,
      "count": 47012,
      "max": [
        0.9919430017471313,
        0.9920420050621033
      ],
      "min": [
        0.007987000048160553,
        0.008705000393092632
      ],
      "type": "VEC2"
    },
    {
      "bufferView": 0,
      "componentType": 5125,
      "count": 265563,
      "type": "SCALAR"
    },
    {
      "bufferView": 2,
      "byteOffset": 1128288,
      "componentType": 5126,
      "count": 60265,
      "max": [
        -1.4466853141784668,
        -0.16610877215862274,
        5.65316104888916
      ],
      "min": [
        -2.7240264415740967,
        -4.780392646789551,
        -6.96222448348999
      ],
      "type": "VEC3"
    },
    {
      "bufferView": 2,
      "byteOffset": 1851468,
      "componentType": 5126,
      "count": 60265,
      "max": [
        0.9734423160552979,
        0.971954345703125,
        1.0
      ],
      "min": [
        -1.0,
        -0.9999945759773254,
        -0.9999998211860657
      ],
      "type": "VEC3"
    },
    {
      "bufferView": 1,
      "byteOffset": 376096,
      "componentType": 5126,
      "count": 60265,
      "max": [
        0.9918450117111206,
        0.9920520186424255
      ],
      "min": [
        0.00798999983817339,
        0.008191999979317188
      ],
      "type": "VEC2"
    },
    {
      "bufferView": 0,
      "byteOffset": 1062252,
      "componentType": 5125,
      "count": 339462,
      "type": "SCALAR"
    },
    {
      "bufferView": 2,
      "byteOffset": 2574648,
      "componentType": 5126,
      "count": 46567,
      "max": [
        -1.4466853141784668,
        -0.15346823632717133,
        5.693264007568359
      ],
      "min": [
        -2.7240264415740967,
        -4.780345916748047,
        -6.96222448348999
      ],
      "type": "VEC3"
    },
    {
      "bufferView": 2,
      "byteOffset": 3133452,
      "componentType": 5126,
      "count": 46567,
      "max": [
        0.9953268766403198,
        0.9840306639671326,
        0.9999999403953552
      ],
      "min": [
        -0.9999998211860657,
        -1.0,
        -0.9957873821258545
      ],
      "type": "VEC3"
    },
    {
      "bufferView": 1,
      "byteOffset": 858216,
      "componentType": 5126,
      "count": 46567,
      "max": [
        0.9918209910392761,
        0.9920600056648254
      ],
      "min": [
        0.007939999923110008,
        0.008158000186085701
      ],
      "type": "VEC2"
    },
    {
      "bufferView": 0,
      "byteOffset": 2420100,
      "componentType": 5125,
      "count": 256260,
      "type": "SCALAR"
    },
    {
      "bufferView": 2,
      "byteOffset": 3692256,
      "componentType": 5126,
      "count": 26299,
      "max": [
        -1.4466853141784668,
        -0.1589856892824173,
        5.6932830810546875
      ],
      "min": [
        -2.7240264415740967,
        -4.773499488830566,
        -6.96222448348999
      ],
      "type": "VEC3"
    },
    {
      "bufferView": 2,
      "byteOffset": 4007844,
      "componentType": 5126,
      "count": 26299,
      "max": [
        0.9953268766403198,
        0.9415420293807983,
        0.9999997019767761
      ],
      "min": [
        -0.9999999403953552,
        -0.9999987483024597,
        -0.9999831914901733
      ],
      "type": "VEC3"
    },
    {
      "bufferView": 1,
      "byteOffset": 1230752,
      "componentType": 5126,
      "count": 26299,
      "max": [
        0.9919379949569702,
        0.992061972618103
      ],
      "min": [
        0.007939999923110008,
        0.00795700028538704
      ],
      "type": "VEC2"
    },
    {
      "bufferView": 0,
      "byteOffset": 3445140,
      "componentType": 5125,
      "count": 139023,
      "type": "SCALAR"
    },
    {
      "bufferView": 2,
      "byteOffset": 4323432,
      "componentType": 5126,
      "count": 635,
      "max": [
        -1.4790003299713135,
        -0.1739637404680252,
        5.693235874176025
      ],
      "min": [
        -2.7240264415740967,
        -4.774394512176514,
        -6.96222448348999
      ],
      "type": "VEC3"
    },
    {
      "bufferView": 2,
      "byteOffset": 4331052,
      "componentType": 5126,
      "count": 635,
      "max": [
        0.7597222328186035,
        0.971954345703125,
        0.9995965957641602
      ],
      "min": [
        -0.9999383091926575,
        -0.9999241232872009,
        -0.9954959750175476
      ],
      "type": "VEC3"
    },
    {
      "bufferView": 1,
      "byteOffset": 1441144,
      "componentType": 5126,
      "count": 635,
      "max": [
        0.9912109971046448,
        0.9911670088768005
      ],
      "min": [
        0.008971000090241432,
        0.03246200084686279
      ],
      "type": "VEC2"
    },
    {
      "bufferView": 0,
      "byteOffset": 4001232,
      "componentType": 5125,
      "count": 822,
      "type": "SCALAR"
    }
  ],
  "asset": {
    "extras": {
      "author": "jtressle (https://sketchfab.com/jtressle)",
      "license": "CC-BY-4.0 (http://creativecommons.org/licenses/by/4.0/)",
      "source": "https://sketchfab.com/3d-models/blue-mural-of-a-prisoner-costa-mesa-eb1b79d4502c400898cb8025be3e259d",
      "title": "Blue Mural of a Prisoner, Costa Mesa"
    },
    "generator": "Sketchfab-14.8.0",
    "version": "2.0"
  },
  "bufferViews": [
    {
      "buffer": 0,
      "byteLength": 4004520,
      "name": "floatBufferViews",
      "target": 34963
    },
    {
      "buffer": 0,
      "byteLength": 1446224,
      "byteOffset": 4004520,
      "byteStride": 8,
      "name": "floatBufferViews",
      "target": 34962
    },
    {
      "buffer": 0,
      "byteLength": 4338672,
      "byteOffset": 5450744,
      "byteStride": 12,
      "name": "floatBufferViews",
      "target": 34962
    }
  ],
  "buffers": [
    {
      "byteLength": 9789416,
      "uri": "scene.bin"
    }
  ],
  "extensionsUsed": [
    "KHR_materials_unlit"
  ],
  "images": [
    {
      "uri": "textures/material0000_baseColor.jpeg"
    },
    {
      "uri": "textures/material0001_baseColor.jpeg"
    },
    {
      "uri": "textures/material0002_baseColor.jpeg"
    },
    {
      "uri": "textures/material0003_baseColor.jpeg"
    },
    {
      "uri": "textures/material0004_baseColor.jpeg"
    }
  ],
  "materials": [
    {
      "doubleSided": true,
      "extensions": {
        "KHR_materials_unlit": {}
      },
      "name": "material0000",
      "pbrMetallicRoughness": {
        "baseColorTexture": {
          "index": 0
        },
        "metallicFactor": 0.0
      }
    },
    {
      "doubleSided": true,
      "extensions": {
        "KHR_materials_unlit": {}
      },
      "name": "material0001",
      "pbrMetallicRoughness": {
        "baseColorTexture": {
          "index": 1
        },
        "metallicFactor": 0.0
      }
    },
    {
      "doubleSided": true,
      "extensions": {
        "KHR_materials_unlit": {}
      },
      "name": "material0002",
      "pbrMetallicRoughness": {
        "baseColorTexture": {
          "index": 2
        },
        "metallicFactor": 0.0
      }
    },
    {
      "doubleSided": true,
      "extensions": {
        "KHR_materials_unlit": {}
      },
      "name": "material0003",
      "pbrMetallicRoughness": {
        "baseColorTexture": {
          "index": 3
        },
        "metallicFactor": 0.0
      }
    },
    {
      "doubleSided": true,
      "extensions": {
        "KHR_materials_unlit": {}
      },
      "name": "material0004",
      "pbrMetallicRoughness": {
        "baseColorTexture": {
          "index": 4
        },
        "metallicFactor": 0.0
      }
    }
  ],
  "meshes": [
    {
      "name": "Object_0",
      "primitives": [
        {
          "attributes": {
            "NORMAL": 1,
            "POSITION": 0,
            "TEXCOORD_0": 2
          },
          "indices": 3,
          "material": 0,
          "mode": 4
        }
      ]
    },
    {
      "name": "Object_1",
      "primitives": [
        {
          "attributes": {
            "NORMAL": 5,
            "POSITION": 4,
            "TEXCOORD_0": 6
          },
          "indices": 7,
          "material": 1,
          "mode": 4
        }
      ]
    },
    {
      "name": "Object_2",
      "primitives": [
        {
          "attributes": {
            "NORMAL": 9,
            "POSITION": 8,
            "TEXCOORD_0": 10
          },
          "indices": 11,
          "material": 2,
          "mode": 4
        }
      ]
    },
    {
      "name": "Object_3",
      "primitives": [
        {
          "attributes": {
            "NORMAL": 13,
            "POSITION": 12,
            "TEXCOORD_0": 14
          },
          "indices": 15,
          "material": 3,
          "mode": 4
        }
      ]
    },
    {
      "name": "Object_4",
      "primitives": [
        {
          "attributes": {
            "NORMAL": 17,
            "POSITION": 16,
            "TEXCOORD_0": 18
          },
          "indices": 19,
          "material": 4,
          "mode": 4
        }
      ]
    }
  ],
  "nodes": [
    {
      "children": [
        1
      ],
      "matrix": [
        0.0,
        4.440892098500626e-16,
        -1.0,
        0.0,
        2.220446049250313e-16,
        -1.0,
        -6.661338147750939e-16,
        0.0,
        -1.0,
        -4.930380657631324e-32,
        2.220446049250313e-16,
        0.0,
        0.0,
        0.0,
        0.0,
        1.0
      ],
      "name": "Sketchfab_model"
    },
    {
      "children": [
        2,
        3,
        4,
        5,
        6
      ],
      "name": "blue_mural.obj.cleaner.materialmerger.gles"
    },
    {
      "mesh": 0,
      "name": "Object_2"
    },
    {
      "mesh": 1,
      "name": "Object_3"
    },
    {
      "mesh": 2,
      "name": "Object_4"
    },
    {
      "mesh": 3,
      "name": "Object_5"
    },
    {
      "mesh": 4,
      "name": "Object_6"
    }
  ],
  "samplers": [
    {
      "magFilter": 9729,
      "minFilter": 9987,
      "wrapS": 10497,
      "wrapT": 10497
    }
  ],
  "scene": 0,
  "scenes": [
    {
      "name": "Sketchfab_Scene",
      "nodes": [
        0
      ]
    }
  ],
  "textures": [
    {
      "sampler": 0,
      "source": 0
    },
    {
      "sampler": 0,
      "source": 1
    },
    {
      "sampler": 0,
      "source": 2
    },
    {
      "sampler": 0,
      "source": 3
    },
    {
      "sampler": 0,
      "source": 4
    }
  ]
}
